<svg xmlns="http://www.w3.org/2000/svg" xmlns:xlink="http://www.w3.org/1999/xlink" fill="none" version="1.1" width="24" height="24" viewBox="0 0 24 24"><g style="mix-blend-mode:passthrough"><g><g style="mix-blend-mode:passthrough"><g><g style="mix-blend-mode:passthrough"><path d="M13.352354049682617,18.43574710247803C13.020983049682616,18.43574710247803,12.752354049682618,18.704376102478026,12.752354049682618,19.035747102478027C12.752354049682618,19.367117102478026,13.020983049682616,19.63574410247803,13.352354049682617,19.63574410247803C13.352354049682617,19.63574410247803,13.352354049682617,18.43574710247803,13.352354049682617,18.43574710247803C13.352354049682617,18.43574710247803,13.352354049682617,18.43574710247803,13.352354049682617,18.43574710247803ZM18.964514049682617,19.63574410247803C19.295884049682616,19.63574410247803,19.564514049682618,19.367117102478026,19.564514049682618,19.035747102478027C19.564514049682618,18.704376102478026,19.295884049682616,18.43574710247803,18.964514049682617,18.43574710247803C18.964514049682617,18.43574710247803,18.964514049682617,19.63574410247803,18.964514049682617,19.63574410247803C18.964514049682617,19.63574410247803,18.964514049682617,19.63574410247803,18.964514049682617,19.63574410247803ZM13.352354049682617,19.63574410247803C13.352354049682617,19.63574410247803,18.964514049682617,19.63574410247803,18.964514049682617,19.63574410247803C18.964514049682617,19.63574410247803,18.964514049682617,18.43574710247803,18.964514049682617,18.43574710247803C18.964514049682617,18.43574710247803,13.352354049682617,18.43574710247803,13.352354049682617,18.43574710247803C13.352354049682617,18.43574710247803,13.352354049682617,19.63574410247803,13.352354049682617,19.63574410247803C13.352354049682617,19.63574410247803,13.352354049682617,19.63574410247803,13.352354049682617,19.63574410247803Z" fill="#1F2126" fill-opacity="1"/></g><g style="mix-blend-mode:passthrough"><path d="M12.60354453125,5.162337C12.60354453125,5.162337,12.12962453125,4.79413,12.12962453125,4.79413C12.12962453125,4.79413,12.12179453125,4.804685,12.12179453125,4.804685C12.12179453125,4.804685,12.60354453125,5.162337,12.60354453125,5.162337C12.60354453125,5.162337,12.60354453125,5.162337,12.60354453125,5.162337ZM15.01491453125,4.909784C15.01491453125,4.909784,14.62241453125,5.3636289999999995,14.62241453125,5.3636289999999995C14.62241453125,5.3636289999999995,14.62669453125,5.367258,14.62669453125,5.367258C14.62669453125,5.367258,15.01491453125,4.909784,15.01491453125,4.909784C15.01491453125,4.909784,15.01491453125,4.909784,15.01491453125,4.909784ZM16.35614453125,6.03235C16.35614453125,6.03235,15.97114453125,6.49254,15.97114453125,6.49254C15.98944453125,6.50789,16.008744531250002,6.52212,16.02874453125,6.53517C16.02874453125,6.53517,16.35614453125,6.03235,16.35614453125,6.03235C16.35614453125,6.03235,16.35614453125,6.03235,16.35614453125,6.03235ZM16.91324453125,8.51888C16.91324453125,8.51888,16.39534453125,8.21581,16.39534453125,8.21581C16.39534453125,8.21581,16.39424453125,8.21774,16.39424453125,8.21774C16.39424453125,8.21774,16.91324453125,8.51888,16.91324453125,8.51888C16.91324453125,8.51888,16.91324453125,8.51888,16.91324453125,8.51888ZM9.53300453125,18.470599999999997C9.53300453125,18.470599999999997,10.014314531250001,18.8289,10.014314531250001,18.8289C10.014314531250001,18.8289,10.01477453125,18.828200000000002,10.01477453125,18.828200000000002C10.01477453125,18.828200000000002,9.53300453125,18.470599999999997,9.53300453125,18.470599999999997C9.53300453125,18.470599999999997,9.53300453125,18.470599999999997,9.53300453125,18.470599999999997ZM8.52005453125,18.997999999999998C8.52005453125,18.997999999999998,8.51303453125,18.398,8.51303453125,18.398C8.51303453125,18.398,8.51194453125,18.398,8.51194453125,18.398C8.51194453125,18.398,8.52005453125,18.997999999999998,8.52005453125,18.997999999999998C8.52005453125,18.997999999999998,8.52005453125,18.997999999999998,8.52005453125,18.997999999999998ZM5.06932893125,16.1438C5.06932893125,16.1438,4.48316553125,16.271900000000002,4.48316553125,16.271900000000002C4.48316553125,16.271900000000002,4.48326653125,16.2723,4.48326653125,16.2723C4.48326653125,16.2723,5.06932893125,16.1438,5.06932893125,16.1438C5.06932893125,16.1438,5.06932893125,16.1438,5.06932893125,16.1438ZM5.31398653125,14.9813C5.31398653125,14.9813,5.79529153125,15.3395,5.79529153125,15.3395C5.79529153125,15.3395,5.7957385312500005,15.3389,5.7957385312500005,15.3389C5.7957385312500005,15.3389,5.31398653125,14.9813,5.31398653125,14.9813C5.31398653125,14.9813,5.31398653125,14.9813,5.31398653125,14.9813ZM13.07734453125,5.53046C13.47081453125,5.024031,14.15531453125,4.9596350000000005,14.62243453125,5.363609C14.62243453125,5.363609,15.40744453125,4.4559584,15.40744453125,4.4559584C14.41008453125,3.593451,12.93668453125,3.75561,12.129744531250001,4.794219C12.129744531250001,4.794219,13.07734453125,5.53046,13.07734453125,5.53046C13.07734453125,5.53046,13.07734453125,5.53046,13.07734453125,5.53046ZM14.62669453125,5.367258C14.64903453125,5.386222,14.98728453125,5.66932,15.31564453125,5.9441C15.48074453125,6.08228,15.64464453125,6.21939,15.76724453125,6.32195C15.82854453125,6.3732299999999995,15.87954453125,6.41588,15.91514453125,6.4457C15.93294453125,6.4606200000000005,15.94694453125,6.47232,15.95654453125,6.4803C15.96124453125,6.48429,15.96494453125,6.48735,15.96744453125,6.4894099999999995C15.96864453125,6.4904399999999995,15.96954453125,6.49122,15.97014453125,6.49175C15.97054453125,6.4920100000000005,15.97074453125,6.49221,15.97084453125,6.49234C15.97094453125,6.4924,15.97104453125,6.49245,15.97104453125,6.49249C15.97104453125,6.4925,15.97114453125,6.49252,15.97114453125,6.49252C15.97114453125,6.49253,15.97114453125,6.49254,16.35614453125,6.03235C16.74114453125,5.57216,16.74114453125,5.57215,16.74114453125,5.57214C16.74114453125,5.57214,16.741044531249997,5.57212,16.741044531249997,5.57211C16.741044531249997,5.57207,16.74094453125,5.57202,16.740844531249998,5.57196C16.74074453125,5.57183,16.740544531250002,5.57163,16.74014453125,5.57137C16.73954453125,5.57085,16.73864453125,5.57006,16.73744453125,5.56904C16.73494453125,5.56698,16.73124453125,5.5639199999999995,16.72654453125,5.55993C16.71694453125,5.55195,16.702944531249997,5.54025,16.68514453125,5.52534C16.64954453125,5.495516,16.59854453125,5.452876,16.53724453125,5.401601C16.41474453125,5.29905,16.25084453125,5.16196,16.08574453125,5.0238C15.92064453125,4.885633,15.75424453125,4.746419,15.62674453125,4.639609C15.56294453125,4.5861976,15.50884453125,4.5409291,15.46944453125,4.50795949C15.44984453125,4.49146648,15.43384453125,4.4781113,15.42224453125,4.4683767C15.41644453125,4.4635022,15.41184453125,4.4596105,15.40834453125,4.4567212C15.40664453125,4.4552745,15.40534453125,4.4541478,15.40434453125,4.4533133C15.40324453125,4.4523761,15.40294453125,4.4521365,15.40314453125,4.4523092C15.40314453125,4.4523092,14.62669453125,5.367258,14.62669453125,5.367258C14.62669453125,5.367258,14.62669453125,5.367258,14.62669453125,5.367258ZM16.02874453125,6.53517C16.55414453125,6.877190000000001,16.737344531250002,7.63156,16.39534453125,8.21581C16.39534453125,8.21581,17.431044531250002,8.821950000000001,17.431044531250002,8.821950000000001C18.08354453125,7.707050000000001,17.766944531249997,6.23486,16.68344453125,5.52952C16.68344453125,5.52952,16.02874453125,6.53517,16.02874453125,6.53517C16.02874453125,6.53517,16.02874453125,6.53517,16.02874453125,6.53517ZM16.39424453125,8.21774C16.41334453125,8.18481,16.43794453125,8.15236,16.42014453125,8.17698C16.417344531250002,8.18087,16.41254453125,8.187429999999999,16.405444531249998,8.19717C16.391444531250002,8.216380000000001,16.370544531249998,8.244810000000001,16.342944531249998,8.28219C16.287944531249998,8.35679,16.20794453125,8.46518,16.10614453125,8.60272C15.90274453125,8.87772,15.61344453125,9.268229999999999,15.26684453125,9.73574C14.57384453125,10.670729999999999,13.65221453125,11.91318,12.73135453125,13.15429C11.81050453125,14.39537,10.89047453125,15.635,10.200654531249999,16.5644C9.85574453125,17.0292,9.56839453125,17.4163,9.367264531250001,17.6872C9.26669453125,17.822699999999998,9.18769453125,17.9291,9.13382453125,18.0017C9.10689453125,18.038,9.08624453125,18.0658,9.07233453125,18.084600000000002C9.06537453125,18.093899999999998,9.060104531250001,18.101,9.05656453125,18.105800000000002C9.05480453125,18.1082,9.05346453125,18.11,9.05257453125,18.1112C9.052134531250001,18.111800000000002,9.05179453125,18.1122,9.05157453125,18.1125C9.05146453125,18.1127,9.051384531250001,18.1128,9.05132453125,18.1129C9.05126453125,18.1129,9.05124453125,18.113,9.53300453125,18.470599999999997C10.01477453125,18.828200000000002,10.01479453125,18.828200000000002,10.01485453125,18.8281C10.01491453125,18.828,10.01499453125,18.8279,10.01510453125,18.8278C10.01533453125,18.8275,10.01566453125,18.826999999999998,10.01611453125,18.8264C10.017004531249999,18.825200000000002,10.01833453125,18.8234,10.02010453125,18.8211C10.02363453125,18.8163,10.028914531249999,18.8092,10.03587453125,18.799799999999998C10.049784531250001,18.781100000000002,10.070434531250001,18.7533,10.097364531250001,18.717C10.151234531250001,18.644399999999997,10.230244531250001,18.538,10.330814531249999,18.4025C10.531954531250001,18.131500000000003,10.81932453125,17.7444,11.164244531249999,17.279600000000002C11.854084531249999,16.3502,12.77415453125,15.1105,13.69505453125,13.86932C14.61594453125,12.62819,15.53774453125,11.38555,16.23094453125,10.45032C16.57754453125,9.98274,16.867044531250002,9.59186,17.07084453125,9.3164C17.17274453125,9.178709999999999,17.25334453125,9.06961,17.30894453125,8.9941C17.336744531249998,8.95642,17.35864453125,8.926639999999999,17.37394453125,8.9057C17.38154453125,8.89536,17.38804453125,8.88636,17.39314453125,8.87934C17.39554453125,8.876000000000001,17.39854453125,8.87185,17.40144453125,8.867709999999999C17.40284453125,8.86578,17.40524453125,8.86228,17.408144531250002,8.8581C17.409644531250002,8.85595,17.412944531249998,8.85099,17.41494453125,8.84797C17.41804453125,8.84314,17.42664453125,8.829270000000001,17.43214453125,8.82003C17.43214453125,8.82003,16.39424453125,8.21774,16.39424453125,8.21774C16.39424453125,8.21774,16.39424453125,8.21774,16.39424453125,8.21774ZM9.05170453125,18.112299999999998C8.91388453125,18.2975,8.71474453125,18.395699999999998,8.51303453125,18.398C8.51303453125,18.398,8.52707453125,19.598,8.52707453125,19.598C9.11917453125,19.591,9.66280453125,19.301099999999998,10.014314531250001,18.8289C10.014314531250001,18.8289,9.05170453125,18.112299999999998,9.05170453125,18.112299999999998C9.05170453125,18.112299999999998,9.05170453125,18.112299999999998,9.05170453125,18.112299999999998ZM8.51194453125,18.398C8.51194453125,18.398,6.51125453125,18.4251,6.51125453125,18.4251C6.51125453125,18.4251,6.52747453125,19.625,6.52747453125,19.625C6.52747453125,19.625,8.528164531249999,19.5979,8.528164531249999,19.5979C8.528164531249999,19.5979,8.51194453125,18.398,8.51194453125,18.398C8.51194453125,18.398,8.51194453125,18.398,8.51194453125,18.398ZM6.1151445312499995,18.110799999999998C6.1151445312499995,18.110799999999998,5.65539153125,16.0152,5.65539153125,16.0152C5.65539153125,16.0152,4.48326653125,16.2723,4.48326653125,16.2723C4.48326653125,16.2723,4.94302003125,18.368000000000002,4.94302003125,18.368000000000002C4.94302003125,18.368000000000002,6.1151445312499995,18.110799999999998,6.1151445312499995,18.110799999999998C6.1151445312499995,18.110799999999998,6.1151445312499995,18.110799999999998,6.1151445312499995,18.110799999999998ZM5.65549153125,16.015700000000002C5.60264453125,15.7739,5.6572035312499995,15.5251,5.79529053125,15.3395C5.79529053125,15.3395,4.8326815312499996,14.623,4.8326815312499996,14.623C4.48145353125,15.0949,4.35824053125,15.7003,4.48316553125,16.271900000000002C4.48316553125,16.271900000000002,5.65549153125,16.015700000000002,5.65549153125,16.015700000000002C5.65549153125,16.015700000000002,5.65549153125,16.015700000000002,5.65549153125,16.015700000000002ZM5.7957385312500005,15.3389C5.7957385312500005,15.3389,13.08529453125,5.51999,13.08529453125,5.51999C13.08529453125,5.51999,12.12179453125,4.804685,12.12179453125,4.804685C12.12179453125,4.804685,4.83223353125,14.6236,4.83223353125,14.6236C4.83223353125,14.6236,5.7957385312500005,15.3389,5.7957385312500005,15.3389C5.7957385312500005,15.3389,5.7957385312500005,15.3389,5.7957385312500005,15.3389ZM6.51125453125,18.4251C6.3213645312499995,18.4277,6.1558445312500005,18.296300000000002,6.1151445312499995,18.110799999999998C6.1151445312499995,18.110799999999998,4.94302003125,18.368000000000002,4.94302003125,18.368000000000002C5.10580473125,19.11,5.76789353125,19.6353,6.52747453125,19.625C6.52747453125,19.625,6.51125453125,18.4251,6.51125453125,18.4251C6.51125453125,18.4251,6.51125453125,18.4251,6.51125453125,18.4251Z" fill="#1F2126" fill-opacity="1"/></g><g style="mix-blend-mode:passthrough"><path d="M11.624833177368163,6.538356494155884C11.369479177368165,6.327166494155884,10.991271177368164,6.362969494155884,10.780082177368165,6.6183234941558835C10.568892177368165,6.873677494155884,10.604695177368164,7.251885494155884,10.860049177368165,7.463074494155884C10.860049177368165,7.463074494155884,11.624833177368163,6.538356494155884,11.624833177368163,6.538356494155884C11.624833177368163,6.538356494155884,11.624833177368163,6.538356494155884,11.624833177368163,6.538356494155884ZM15.079071177368164,10.952395494155883C15.334421177368164,11.163585494155884,15.712631177368163,11.127785494155884,15.923821177368165,10.872425494155884C16.135011177368163,10.617075494155884,16.099211177368165,10.238865494155885,15.843851177368164,10.027675494155883C15.843851177368164,10.027675494155883,15.079071177368164,10.952395494155883,15.079071177368164,10.952395494155883C15.079071177368164,10.952395494155883,15.079071177368164,10.952395494155883,15.079071177368164,10.952395494155883ZM10.860049177368165,7.463074494155884C10.860049177368165,7.463074494155884,15.079071177368164,10.952395494155883,15.079071177368164,10.952395494155883C15.079071177368164,10.952395494155883,15.843851177368164,10.027675494155883,15.843851177368164,10.027675494155883C15.843851177368164,10.027675494155883,11.624833177368163,6.538356494155884,11.624833177368163,6.538356494155884C11.624833177368163,6.538356494155884,10.860049177368165,7.463074494155884,10.860049177368165,7.463074494155884C10.860049177368165,7.463074494155884,10.860049177368165,7.463074494155884,10.860049177368165,7.463074494155884Z" fill="#1F2126" fill-opacity="1"/></g></g></g></g></g></svg>