<svg xmlns="http://www.w3.org/2000/svg" xmlns:xlink="http://www.w3.org/1999/xlink" fill="none" version="1.1" width="14" height="14" viewBox="0 0 14 14"><g style="mix-blend-mode:passthrough"><g style="mix-blend-mode:passthrough"><rect x="0" y="0" width="14" height="14" rx="7" fill="#2878FF" fill-opacity="1"/></g><g style="mix-blend-mode:passthrough"><path d="M10.53033,5.53033L6.53033,9.53033Q6.4780999999999995,9.58256,6.4166799999999995,9.6236Q6.3552599999999995,9.66464,6.28701,9.692910000000001Q6.21877,9.72118,6.146319999999999,9.73559Q6.073869999999999,9.75,6,9.75Q5.92613,9.75,5.85368,9.73559Q5.78123,9.72118,5.71299,9.692910000000001Q5.6447400000000005,9.66464,5.5833200000000005,9.6236Q5.5219000000000005,9.58256,5.46967,9.53033L3.46967,7.53033L4.53033,6.46967L6.53033,8.46967L6,9L5.46967,8.46967L9.46967,4.46967L10.53033,5.53033ZM10.75,5Q10.75,5.0738685,10.73559,5.146318Q10.72118,5.218767,10.692910000000001,5.287013Q10.66464,5.355258,10.6236,5.416678Q10.58256,5.478097,10.53033,5.53033Q10.478100000000001,5.582563,10.41668,5.623602Q10.355260000000001,5.664641,10.28701,5.69291Q10.21877,5.721178,10.14632,5.735589Q10.07387,5.75,10,5.75Q9.92613,5.75,9.85368,5.735589Q9.78123,5.721178,9.71299,5.69291Q9.644739999999999,5.664641,9.58332,5.623602Q9.521899999999999,5.582563,9.46967,5.53033Q9.41744,5.478097,9.3764,5.416678Q9.33536,5.355258,9.307089999999999,5.287013Q9.27882,5.218767,9.26441,5.146318Q9.25,5.0738685,9.25,5Q9.25,4.9261315,9.26441,4.853682Q9.27882,4.781233,9.307089999999999,4.712987Q9.33536,4.644742,9.3764,4.583322Q9.41744,4.521903,9.46967,4.46967Q9.521899999999999,4.417437,9.58332,4.376398Q9.644739999999999,4.335359,9.71299,4.30709Q9.78123,4.278822,9.85368,4.264411Q9.92613,4.25,10,4.25Q10.07387,4.25,10.14632,4.264411Q10.21877,4.278822,10.28701,4.30709Q10.355260000000001,4.335359,10.41668,4.376398Q10.478100000000001,4.417437,10.53033,4.46967Q10.58256,4.521903,10.6236,4.583322Q10.66464,4.644742,10.692910000000001,4.712987Q10.72118,4.781233,10.73559,4.853682Q10.75,4.9261315,10.75,5ZM4.75,7Q4.75,7.073869999999999,4.735589,7.146319999999999Q4.721178,7.21877,4.69291,7.28701Q4.664641,7.3552599999999995,4.623602,7.4166799999999995Q4.582563,7.4780999999999995,4.53033,7.53033Q4.478097,7.58256,4.416678,7.6236Q4.355258,7.66464,4.287013,7.6929099999999995Q4.218767,7.72118,4.146318,7.73559Q4.0738685,7.75,4,7.75Q3.9261315,7.75,3.853682,7.73559Q3.781233,7.72118,3.712987,7.6929099999999995Q3.644742,7.66464,3.583322,7.6236Q3.521903,7.58256,3.46967,7.53033Q3.417437,7.4780999999999995,3.376398,7.4166799999999995Q3.335359,7.3552599999999995,3.30709,7.28701Q3.278822,7.21877,3.264411,7.146319999999999Q3.25,7.073869999999999,3.25,7Q3.25,6.92613,3.264411,6.85368Q3.278822,6.78123,3.30709,6.71299Q3.335359,6.6447400000000005,3.376398,6.5833200000000005Q3.417437,6.5219000000000005,3.46967,6.46967Q3.521903,6.41744,3.583322,6.3764Q3.644742,6.33536,3.712987,6.3070900000000005Q3.781233,6.27882,3.853682,6.26441Q3.9261315,6.25,4,6.25Q4.0738685,6.25,4.146318,6.26441Q4.218767,6.27882,4.287013,6.3070900000000005Q4.355258,6.33536,4.416678,6.3764Q4.478097,6.41744,4.53033,6.46967Q4.582563,6.5219000000000005,4.623602,6.5833200000000005Q4.664641,6.6447400000000005,4.69291,6.71299Q4.721178,6.78123,4.735589,6.85368Q4.75,6.92613,4.75,7Z" fill="#FFFFFF" fill-opacity="1"/></g></g></svg>